<svg id="_레이어_2" xmlns="http://www.w3.org/2000/svg" viewBox="0 0 120 120" width="120" height="120"><g id="_레이어_1-2"><circle cx="53" cy="56.7" r="52.5" fill="#040000" stroke="#231815" stroke-miterlimit="10"/><circle cx="56.4" cy="53" r="52.5" fill="#fff" stroke="#231815" stroke-miterlimit="10"/><g isolation="isolate"><path d="m36.4,59.7c-.7-2-1.4-3.9-2.1-5.9s-1.4-4-2.1-5.9h4c.4,1.2.8,2.4,1.2,3.6s.8,2.4,1.2,3.6c.4-1.2.8-2.4,1.2-3.6.4-1.2.8-2.4,1.2-3.6h4c-.7,2-1.4,3.9-2.1,5.9-.7,2-1.4,4-2.1,5.9h-4.4Z" fill="#231815"/><path d="m48.1,46.4c-.4,0-.8,0-1.2-.3-.4-.2-.6-.5-.9-.9-.2-.4-.3-.7-.3-1.2s.1-.8.3-1.2c.2-.3.5-.6.9-.8.4-.2.8-.3,1.2-.3s.8,0,1.2.3c.4.2.6.5.9.8.2.3.3.7.3,1.2s-.1.8-.3,1.2-.5.6-.9.9c-.4.2-.8.3-1.2.3Zm-1.9,13.3v-11.8h3.8v11.8h-3.8Z" fill="#231815"/></g><g isolation="isolate"><path d="m62.8,59.1c-1.1.4-2.1.7-3.2.8-1,.1-2,0-3-.2s-1.8-.6-2.5-1.1-1.3-1.2-1.7-2-.6-1.8-.6-2.9.1-1.7.4-2.5c.3-.8.7-1.4,1.3-2s1.2-1,2-1.3,1.6-.5,2.5-.5,1.5,0,2.2.4,1.2.6,1.7,1.1.9,1,1.1,1.7c.3.6.5,1.3.6,2.1s0,1.6-.1,2.4h-7.6c.3.6.8,1,1.5,1.2s1.5.3,2.4.2,2-.3,3-.7v1.6c0,.7,0,1.2,0,1.7Zm-4.8-8.3c-.4,0-.9,0-1.2.4-.4.2-.7.6-.9,1.1h4.2c-.2-.5-.5-.9-.8-1.1-.4-.3-.8-.4-1.3-.4Z" fill="#231815"/></g><g isolation="isolate"><path d="m67.8,59.7c-.6-2-1.2-3.9-1.8-5.9s-1.2-4-1.8-5.9h3.8c.3,1.1.6,2.2.9,3.3.3,1.1.6,2.2.9,3.3.3-1.1.5-2.2.8-3.3.3-1.1.5-2.2.8-3.3h3.2c.3,1.1.5,2.2.8,3.3s.5,2.2.8,3.3c.3-1.1.6-2.2.9-3.3.3-1.1.6-2.2.9-3.3h3.8c-.6,2-1.2,3.9-1.8,5.9-.6,2-1.2,4-1.8,5.9h-3.8c-.2-1-.5-1.9-.7-2.9s-.5-1.9-.7-2.9c-.2.9-.5,1.9-.7,2.9-.3,1-.5,1.9-.7,2.9h-1.9c-.6,0-1.2,0-1.9,0Z" fill="#231815"/></g></g></svg>